<svg width="500" height="500" viewBox="0 0 500 500" fill="none" xmlns="http://www.w3.org/2000/svg">
<path d="M417.407 72.0359L443.888 72.036L443.888 60.846L417.407 60.8459L417.407 72.0359Z" stroke="#EBEBEB" stroke-width="0.75" stroke-miterlimit="10"/>
<path d="M432.178 57.9264H458.659V46.7364H432.178V57.9264Z" stroke="#EBEBEB" stroke-width="0.75" stroke-miterlimit="10"/>
<path d="M249.999 182.158H276.48V170.968H249.999V182.158Z" stroke="#EBEBEB" stroke-width="0.75" stroke-miterlimit="10"/>
<path d="M264.771 168.049H291.252V156.859H264.771V168.049Z" stroke="#EBEBEB" stroke-width="0.75" stroke-miterlimit="10"/>
<path d="M279.485 182.158H305.966V170.968H279.485V182.158Z" stroke="#EBEBEB" stroke-width="0.75" stroke-miterlimit="10"/>
<path d="M41.3409 57.9264H67.8219V46.7364H41.3409V57.9264Z" stroke="#EBEBEB" stroke-width="0.75" stroke-miterlimit="10"/>
<path d="M56.1124 321.037H82.5934V309.847H56.1124V321.037Z" stroke="#EBEBEB" stroke-width="0.75" stroke-miterlimit="10"/>
<path d="M41.3409 306.928H67.8219V295.738H41.3409V306.928Z" stroke="#EBEBEB" stroke-width="0.75" stroke-miterlimit="10"/>
<path d="M417.407 321.037L443.888 321.037L443.888 309.847L417.407 309.847L417.407 321.037Z" stroke="#EBEBEB" stroke-width="0.75" stroke-miterlimit="10"/>
<path d="M208.821 421.54V295.877L235.552 259.395V191.059" stroke="#EBEBEB" stroke-miterlimit="10"/>
<path d="M233.177 188.725C233.177 190.037 234.24 191.1 235.552 191.1C236.864 191.1 237.927 190.037 237.927 188.725C237.927 187.413 236.864 186.35 235.552 186.35C234.24 186.35 233.177 187.414 233.177 188.725Z" stroke="#EBEBEB" stroke-miterlimit="10"/>
<path d="M215.706 421.54V300.285L242.436 263.802V216.057" stroke="#EBEBEB" stroke-miterlimit="10"/>
<path d="M240.061 213.723C240.061 215.035 241.124 216.098 242.436 216.098C243.748 216.098 244.811 215.035 244.811 213.723C244.811 212.411 243.748 211.348 242.436 211.348C241.125 211.348 240.061 212.411 240.061 213.723Z" stroke="#EBEBEB" stroke-miterlimit="10"/>
<path d="M202.188 421.54V255.13" stroke="#EBEBEB" stroke-miterlimit="10"/>
<path d="M199.813 252.755C199.813 254.067 200.876 255.13 202.188 255.13C203.5 255.13 204.563 254.067 204.563 252.755C204.563 251.443 203.5 250.38 202.188 250.38C200.877 250.38 199.813 251.443 199.813 252.755Z" stroke="#EBEBEB" stroke-miterlimit="10"/>
<path d="M195.803 421.54V336.965L177.655 302.735V241.372" stroke="#EBEBEB" stroke-miterlimit="10"/>
<path d="M175.28 238.997C175.28 240.309 176.343 241.372 177.655 241.372C178.967 241.372 180.03 240.309 180.03 238.997C180.03 237.685 178.967 236.622 177.655 236.622C176.343 236.622 175.28 237.685 175.28 238.997Z" stroke="#EBEBEB" stroke-miterlimit="10"/>
<path d="M189.454 421.54V340.622L168.059 302.781V262.366" stroke="#EBEBEB" stroke-miterlimit="10"/>
<path d="M165.684 259.991C165.684 261.303 166.747 262.366 168.059 262.366C169.371 262.366 170.434 261.303 170.434 259.991C170.434 258.679 169.371 257.616 168.059 257.616C166.748 257.616 165.684 258.679 165.684 259.991Z" stroke="#EBEBEB" stroke-miterlimit="10"/>
<path d="M110.723 37.556V0" stroke="#C7C7C7" stroke-miterlimit="10"/>
<path d="M133.929 59.925L132.063 64.029H89.3778L87.5168 59.925L105.689 47.347H115.757L133.929 59.925Z" fill="#EBEBEB"/>
<path d="M117.018 35.228L115.757 47.347H105.689L104.428 35.228H117.018Z" fill="#DBDBDB"/>
<path d="M133.927 59.927L132.061 64.03H89.3759L87.5149 59.927H133.927Z" fill="#DBDBDB"/>
<path d="M203.575 37.556V0" stroke="#C7C7C7" stroke-miterlimit="10"/>
<path d="M226.781 59.925L224.915 64.029H182.23L180.369 59.925L198.541 47.347H208.609L226.781 59.925Z" fill="#EBEBEB"/>
<path d="M209.87 35.228L208.609 47.347H198.541L197.28 35.228H209.87Z" fill="#DBDBDB"/>
<path d="M226.779 59.927L224.913 64.03H182.228L180.367 59.927H226.779Z" fill="#DBDBDB"/>
<path d="M296.427 37.556V0" stroke="#C7C7C7" stroke-miterlimit="10"/>
<path d="M319.633 59.925L317.767 64.029H275.082L273.221 59.925L291.393 47.347H301.461L319.633 59.925Z" fill="#EBEBEB"/>
<path d="M302.722 35.228L301.461 47.347H291.393L290.132 35.228H302.722Z" fill="#DBDBDB"/>
<path d="M319.631 59.927L317.765 64.03H275.08L273.219 59.927H319.631Z" fill="#DBDBDB"/>
<path d="M389.279 37.556V0" stroke="#C7C7C7" stroke-miterlimit="10"/>
<path d="M412.485 59.925L410.618 64.029H367.934L366.073 59.925L384.245 47.347H394.313L412.485 59.925Z" fill="#EBEBEB"/>
<path d="M395.574 35.228L394.313 47.347H384.245L382.984 35.228H395.574Z" fill="#DBDBDB"/>
<path d="M412.483 59.927L410.617 64.03H367.932L366.071 59.927H412.483Z" fill="#DBDBDB"/>
<path d="M183.794 460.398C242.564 460.398 290.207 452.793 290.207 443.412C290.207 434.031 242.564 426.426 183.794 426.426C125.024 426.426 77.381 434.031 77.381 443.412C77.381 452.793 125.024 460.398 183.794 460.398Z" fill="#EBEBEB"/>
<path d="M332.395 176.42H267.374V421.592H332.395V176.42Z" fill="#37474F"/>
<path d="M452.057 176.42H332.395V421.592H452.057V176.42Z" fill="#455A64"/>
<path d="M444.579 389.794H341.367V413.63H444.579V389.794Z" fill="#37474F"/>
<path d="M404.462 393.731H345.712V395.743H404.462V393.731Z" fill="#455A64"/>
<path d="M404.462 397.218H345.712V399.23H404.462V397.218Z" fill="#455A64"/>
<path d="M404.462 400.706H345.712V402.718H404.462V400.706Z" fill="#455A64"/>
<path d="M404.462 404.193H345.712V406.205H404.462V404.193Z" fill="#455A64"/>
<path d="M404.462 407.681H345.712V409.693H404.462V407.681Z" fill="#455A64"/>
<path d="M415.172 395.726C415.172 396.828 414.279 397.721 413.177 397.721C412.075 397.721 411.182 396.828 411.182 395.726C411.182 394.624 412.075 393.731 413.177 393.731C414.279 393.731 415.172 394.624 415.172 395.726Z" fill="#FF7020"/>
<path d="M421.749 395.726C421.749 396.828 420.856 397.721 419.754 397.721C418.652 397.721 417.759 396.828 417.759 395.726C417.759 394.624 418.652 393.731 419.754 393.731C420.856 393.731 421.749 394.624 421.749 395.726Z" fill="#FF7020"/>
<path d="M428.327 395.726C428.327 396.828 427.434 397.721 426.332 397.721C425.23 397.721 424.337 396.828 424.337 395.726C424.337 394.624 425.23 393.731 426.332 393.731C427.434 393.731 428.327 394.624 428.327 395.726Z" fill="#FF7020"/>
<path d="M434.904 395.726C434.904 396.828 434.011 397.721 432.909 397.721C431.807 397.721 430.914 396.828 430.914 395.726C430.914 394.624 431.807 393.731 432.909 393.731C434.011 393.731 434.904 394.624 434.904 395.726Z" fill="#FF7020"/>
<path d="M441.481 395.726C441.481 396.828 440.588 397.721 439.486 397.721C438.384 397.721 437.491 396.828 437.491 395.726C437.491 394.624 438.384 393.731 439.486 393.731C440.588 393.731 441.481 394.624 441.481 395.726Z" fill="#FF7020"/>
<path d="M415.172 401.712C415.172 402.814 414.279 403.707 413.177 403.707C412.075 403.707 411.182 402.814 411.182 401.712C411.182 400.61 412.075 399.717 413.177 399.717C414.279 399.717 415.172 400.61 415.172 401.712Z" fill="#FF7020"/>
<path d="M421.749 401.712C421.749 402.814 420.856 403.707 419.754 403.707C418.652 403.707 417.759 402.814 417.759 401.712C417.759 400.61 418.652 399.717 419.754 399.717C420.856 399.716 421.749 400.61 421.749 401.712Z" fill="#FF7020"/>
<path d="M428.327 401.712C428.327 402.814 427.434 403.707 426.332 403.707C425.23 403.707 424.337 402.814 424.337 401.712C424.337 400.61 425.23 399.717 426.332 399.717C427.434 399.717 428.327 400.61 428.327 401.712Z" fill="#FF7020"/>
<path d="M434.904 401.712C434.904 402.814 434.011 403.707 432.909 403.707C431.807 403.707 430.914 402.814 430.914 401.712C430.914 400.61 431.807 399.717 432.909 399.717C434.011 399.717 434.904 400.61 434.904 401.712Z" fill="#FF7020"/>
<path d="M441.481 401.712C441.481 402.814 440.588 403.707 439.486 403.707C438.384 403.707 437.491 402.814 437.491 401.712C437.491 400.61 438.384 399.717 439.486 399.717C440.588 399.716 441.481 400.61 441.481 401.712Z" fill="#FF7020"/>
<path d="M413.177 409.692C414.279 409.692 415.172 408.799 415.172 407.697C415.172 406.595 414.279 405.702 413.177 405.702C412.075 405.702 411.182 406.595 411.182 407.697C411.182 408.799 412.075 409.692 413.177 409.692Z" fill="#FF7020"/>
<path d="M421.749 407.697C421.749 408.799 420.856 409.692 419.754 409.692C418.652 409.692 417.759 408.799 417.759 407.697C417.759 406.595 418.652 405.702 419.754 405.702C420.856 405.702 421.749 406.595 421.749 407.697Z" fill="#FF7020"/>
<path d="M426.331 409.692C427.433 409.692 428.326 408.799 428.326 407.697C428.326 406.595 427.433 405.702 426.331 405.702C425.229 405.702 424.336 406.595 424.336 407.697C424.336 408.799 425.229 409.692 426.331 409.692Z" fill="#FF7020"/>
<path d="M434.904 407.697C434.904 408.799 434.011 409.692 432.909 409.692C431.807 409.692 430.914 408.799 430.914 407.697C430.914 406.595 431.807 405.702 432.909 405.702C434.011 405.702 434.904 406.595 434.904 407.697Z" fill="#FF7020"/>
<path d="M441.481 407.697C441.481 408.799 440.588 409.692 439.486 409.692C438.384 409.692 437.491 408.799 437.491 407.697C437.491 406.595 438.384 405.702 439.486 405.702C440.588 405.702 441.481 406.595 441.481 407.697Z" fill="#FF7020"/>
<path d="M408.546 393.731H407.397V409.693H408.546V393.731Z" fill="#263238"/>
<path d="M444.579 361.066H341.367V384.902H444.579V361.066Z" fill="#37474F"/>
<path d="M404.462 365.003H345.712V367.015H404.462V365.003Z" fill="#455A64"/>
<path d="M404.462 368.491H345.712V370.503H404.462V368.491Z" fill="#455A64"/>
<path d="M404.462 371.978H345.712V373.99H404.462V371.978Z" fill="#455A64"/>
<path d="M404.462 375.466H345.712V377.478H404.462V375.466Z" fill="#455A64"/>
<path d="M404.462 378.953H345.712V380.965H404.462V378.953Z" fill="#455A64"/>
<path d="M415.172 366.998C415.172 368.1 414.279 368.993 413.177 368.993C412.075 368.993 411.182 368.1 411.182 366.998C411.182 365.896 412.075 365.003 413.177 365.003C414.279 365.003 415.172 365.896 415.172 366.998Z" fill="#FF7020"/>
<path d="M421.749 366.998C421.749 368.1 420.856 368.993 419.754 368.993C418.652 368.993 417.759 368.1 417.759 366.998C417.759 365.896 418.652 365.003 419.754 365.003C420.856 365.003 421.749 365.896 421.749 366.998Z" fill="#FF7020"/>
<path d="M428.327 366.998C428.327 368.1 427.434 368.993 426.332 368.993C425.23 368.993 424.337 368.1 424.337 366.998C424.337 365.896 425.23 365.003 426.332 365.003C427.434 365.003 428.327 365.896 428.327 366.998Z" fill="#FF7020"/>
<path d="M434.904 366.998C434.904 368.1 434.011 368.993 432.909 368.993C431.807 368.993 430.914 368.1 430.914 366.998C430.914 365.896 431.807 365.003 432.909 365.003C434.011 365.003 434.904 365.896 434.904 366.998Z" fill="#FF7020"/>
<path d="M441.481 366.998C441.481 368.1 440.588 368.993 439.486 368.993C438.384 368.993 437.491 368.1 437.491 366.998C437.491 365.896 438.384 365.003 439.486 365.003C440.588 365.003 441.481 365.896 441.481 366.998Z" fill="#FF7020"/>
<path d="M415.172 372.984C415.172 374.086 414.279 374.979 413.177 374.979C412.075 374.979 411.182 374.086 411.182 372.984C411.182 371.882 412.075 370.989 413.177 370.989C414.279 370.989 415.172 371.882 415.172 372.984Z" fill="#FF7020"/>
<path d="M421.749 372.984C421.749 374.086 420.856 374.979 419.754 374.979C418.652 374.979 417.759 374.086 417.759 372.984C417.759 371.882 418.652 370.989 419.754 370.989C420.856 370.989 421.749 371.882 421.749 372.984Z" fill="#FF7020"/>
<path d="M428.327 372.984C428.327 374.086 427.434 374.979 426.332 374.979C425.23 374.979 424.337 374.086 424.337 372.984C424.337 371.882 425.23 370.989 426.332 370.989C427.434 370.989 428.327 371.882 428.327 372.984Z" fill="#FF7020"/>
<path d="M434.904 372.984C434.904 374.086 434.011 374.979 432.909 374.979C431.807 374.979 430.914 374.086 430.914 372.984C430.914 371.882 431.807 370.989 432.909 370.989C434.011 370.989 434.904 371.882 434.904 372.984Z" fill="#FF7020"/>
<path d="M441.481 372.984C441.481 374.086 440.588 374.979 439.486 374.979C438.384 374.979 437.491 374.086 437.491 372.984C437.491 371.882 438.384 370.989 439.486 370.989C440.588 370.989 441.481 371.882 441.481 372.984Z" fill="#FF7020"/>
<path d="M415.172 378.97C415.172 380.072 414.279 380.965 413.177 380.965C412.075 380.965 411.182 380.072 411.182 378.97C411.182 377.868 412.075 376.975 413.177 376.975C414.279 376.975 415.172 377.868 415.172 378.97Z" fill="#FF7020"/>
<path d="M421.749 378.97C421.749 380.072 420.856 380.965 419.754 380.965C418.652 380.965 417.759 380.072 417.759 378.97C417.759 377.868 418.652 376.975 419.754 376.975C420.856 376.974 421.749 377.868 421.749 378.97Z" fill="#FF7020"/>
<path d="M428.327 378.97C428.327 380.072 427.434 380.965 426.332 380.965C425.23 380.965 424.337 380.072 424.337 378.97C424.337 377.868 425.23 376.975 426.332 376.975C427.434 376.975 428.327 377.868 428.327 378.97Z" fill="#FF7020"/>
<path d="M434.904 378.97C434.904 380.072 434.011 380.965 432.909 380.965C431.807 380.965 430.914 380.072 430.914 378.97C430.914 377.868 431.807 376.975 432.909 376.975C434.011 376.975 434.904 377.868 434.904 378.97Z" fill="#FF7020"/>
<path d="M441.481 378.97C441.481 380.072 440.588 380.965 439.486 380.965C438.384 380.965 437.491 380.072 437.491 378.97C437.491 377.868 438.384 376.975 439.486 376.975C440.588 376.974 441.481 377.868 441.481 378.97Z" fill="#FF7020"/>
<path d="M408.546 365.003H407.397V380.965H408.546V365.003Z" fill="#263238"/>
<path d="M444.579 332.338H341.367V356.174H444.579V332.338Z" fill="#37474F"/>
<path d="M404.462 336.275H345.712V338.287H404.462V336.275Z" fill="#455A64"/>
<path d="M404.462 339.763H345.712V341.775H404.462V339.763Z" fill="#455A64"/>
<path d="M404.462 343.25H345.712V345.262H404.462V343.25Z" fill="#455A64"/>
<path d="M404.462 346.738H345.712V348.75H404.462V346.738Z" fill="#455A64"/>
<path d="M404.462 350.225H345.712V352.237H404.462V350.225Z" fill="#455A64"/>
<path d="M413.177 340.266C414.279 340.266 415.172 339.373 415.172 338.271C415.172 337.169 414.279 336.276 413.177 336.276C412.075 336.276 411.182 337.169 411.182 338.271C411.182 339.373 412.075 340.266 413.177 340.266Z" fill="#FF7020"/>
<path d="M421.749 338.271C421.749 339.373 420.856 340.266 419.754 340.266C418.652 340.266 417.759 339.373 417.759 338.271C417.759 337.169 418.652 336.276 419.754 336.276C420.856 336.275 421.749 337.169 421.749 338.271Z" fill="#FF7020"/>
<path d="M426.331 340.266C427.433 340.266 428.326 339.373 428.326 338.271C428.326 337.169 427.433 336.276 426.331 336.276C425.229 336.276 424.336 337.169 424.336 338.271C424.336 339.373 425.229 340.266 426.331 340.266Z" fill="#FF7020"/>
<path d="M434.904 338.271C434.904 339.373 434.011 340.266 432.909 340.266C431.807 340.266 430.914 339.373 430.914 338.271C430.914 337.169 431.807 336.276 432.909 336.276C434.011 336.276 434.904 337.169 434.904 338.271Z" fill="#FF7020"/>
<path d="M441.481 338.271C441.481 339.373 440.588 340.266 439.486 340.266C438.384 340.266 437.491 339.373 437.491 338.271C437.491 337.169 438.384 336.276 439.486 336.276C440.588 336.275 441.481 337.169 441.481 338.271Z" fill="#FF7020"/>
<path d="M415.172 344.256C415.172 345.358 414.279 346.251 413.177 346.251C412.075 346.251 411.182 345.358 411.182 344.256C411.182 343.154 412.075 342.261 413.177 342.261C414.279 342.261 415.172 343.154 415.172 344.256Z" fill="#FF7020"/>
<path d="M421.749 344.256C421.749 345.358 420.856 346.251 419.754 346.251C418.652 346.251 417.759 345.358 417.759 344.256C417.759 343.154 418.652 342.261 419.754 342.261C420.856 342.261 421.749 343.154 421.749 344.256Z" fill="#FF7020"/>
<path d="M428.327 344.256C428.327 345.358 427.434 346.251 426.332 346.251C425.23 346.251 424.337 345.358 424.337 344.256C424.337 343.154 425.23 342.261 426.332 342.261C427.434 342.261 428.327 343.154 428.327 344.256Z" fill="#FF7020"/>
<path d="M434.904 344.256C434.904 345.358 434.011 346.251 432.909 346.251C431.807 346.251 430.914 345.358 430.914 344.256C430.914 343.154 431.807 342.261 432.909 342.261C434.011 342.261 434.904 343.154 434.904 344.256Z" fill="#FF7020"/>
<path d="M441.481 344.256C441.481 345.358 440.588 346.251 439.486 346.251C438.384 346.251 437.491 345.358 437.491 344.256C437.491 343.154 438.384 342.261 439.486 342.261C440.588 342.261 441.481 343.154 441.481 344.256Z" fill="#FF7020"/>
<path d="M415.172 350.242C415.172 351.344 414.279 352.237 413.177 352.237C412.075 352.237 411.182 351.344 411.182 350.242C411.182 349.14 412.075 348.247 413.177 348.247C414.279 348.247 415.172 349.14 415.172 350.242Z" fill="#FF7020"/>
<path d="M421.749 350.242C421.749 351.344 420.856 352.237 419.754 352.237C418.652 352.237 417.759 351.344 417.759 350.242C417.759 349.14 418.652 348.247 419.754 348.247C420.856 348.246 421.749 349.14 421.749 350.242Z" fill="#FF7020"/>
<path d="M428.327 350.242C428.327 351.344 427.434 352.237 426.332 352.237C425.23 352.237 424.337 351.344 424.337 350.242C424.337 349.14 425.23 348.247 426.332 348.247C427.434 348.247 428.327 349.14 428.327 350.242Z" fill="#FF7020"/>
<path d="M434.904 350.242C434.904 351.344 434.011 352.237 432.909 352.237C431.807 352.237 430.914 351.344 430.914 350.242C430.914 349.14 431.807 348.247 432.909 348.247C434.011 348.247 434.904 349.14 434.904 350.242Z" fill="#FF7020"/>
<path d="M441.481 350.242C441.481 351.344 440.588 352.237 439.486 352.237C438.384 352.237 437.491 351.344 437.491 350.242C437.491 349.14 438.384 348.247 439.486 348.247C440.588 348.246 441.481 349.14 441.481 350.242Z" fill="#FF7020"/>
<path d="M408.546 336.275H407.397V352.237H408.546V336.275Z" fill="#263238"/>
<path d="M444.579 303.61H341.367V327.446H444.579V303.61Z" fill="#37474F"/>
<path d="M404.462 307.548H345.712V309.56H404.462V307.548Z" fill="#455A64"/>
<path d="M404.462 311.035H345.712V313.047H404.462V311.035Z" fill="#455A64"/>
<path d="M404.462 314.523H345.712V316.535H404.462V314.523Z" fill="#455A64"/>
<path d="M404.462 318.01H345.712V320.022H404.462V318.01Z" fill="#455A64"/>
<path d="M404.462 321.497H345.712V323.509H404.462V321.497Z" fill="#455A64"/>
<path d="M415.172 309.543C415.172 310.645 414.279 311.538 413.177 311.538C412.075 311.538 411.182 310.645 411.182 309.543C411.182 308.441 412.075 307.548 413.177 307.548C414.279 307.548 415.172 308.441 415.172 309.543Z" fill="#FF7020"/>
<path d="M421.749 309.543C421.749 310.645 420.856 311.538 419.754 311.538C418.652 311.538 417.759 310.645 417.759 309.543C417.759 308.441 418.652 307.548 419.754 307.548C420.856 307.548 421.749 308.441 421.749 309.543Z" fill="#FF7020"/>
<path d="M428.327 309.543C428.327 310.645 427.434 311.538 426.332 311.538C425.23 311.538 424.337 310.645 424.337 309.543C424.337 308.441 425.23 307.548 426.332 307.548C427.434 307.548 428.327 308.441 428.327 309.543Z" fill="#FF7020"/>
<path d="M434.904 309.543C434.904 310.645 434.011 311.538 432.909 311.538C431.807 311.538 430.914 310.645 430.914 309.543C430.914 308.441 431.807 307.548 432.909 307.548C434.011 307.548 434.904 308.441 434.904 309.543Z" fill="#FF7020"/>
<path d="M441.481 309.543C441.481 310.645 440.588 311.538 439.486 311.538C438.384 311.538 437.491 310.645 437.491 309.543C437.491 308.441 438.384 307.548 439.486 307.548C440.588 307.548 441.481 308.441 441.481 309.543Z" fill="#FF7020"/>
<path d="M413.177 317.523C414.279 317.523 415.172 316.63 415.172 315.528C415.172 314.426 414.279 313.533 413.177 313.533C412.075 313.533 411.182 314.426 411.182 315.528C411.182 316.63 412.075 317.523 413.177 317.523Z" fill="#FF7020"/>
<path d="M421.749 315.528C421.749 316.63 420.856 317.523 419.754 317.523C418.652 317.523 417.759 316.63 417.759 315.528C417.759 314.426 418.652 313.533 419.754 313.533C420.856 313.533 421.749 314.427 421.749 315.528Z" fill="#FF7020"/>
<path d="M426.331 317.523C427.433 317.523 428.326 316.63 428.326 315.528C428.326 314.426 427.433 313.533 426.331 313.533C425.229 313.533 424.336 314.426 424.336 315.528C424.336 316.63 425.229 317.523 426.331 317.523Z" fill="#FF7020"/>
<path d="M434.904 315.528C434.904 316.63 434.011 317.523 432.909 317.523C431.807 317.523 430.914 316.63 430.914 315.528C430.914 314.426 431.807 313.533 432.909 313.533C434.011 313.533 434.904 314.427 434.904 315.528Z" fill="#FF7020"/>
<path d="M441.481 315.528C441.481 316.63 440.588 317.523 439.486 317.523C438.384 317.523 437.491 316.63 437.491 315.528C437.491 314.426 438.384 313.533 439.486 313.533C440.588 313.533 441.481 314.427 441.481 315.528Z" fill="#FF7020"/>
<path d="M413.177 323.509C414.279 323.509 415.172 322.616 415.172 321.514C415.172 320.412 414.279 319.519 413.177 319.519C412.075 319.519 411.182 320.412 411.182 321.514C411.182 322.616 412.075 323.509 413.177 323.509Z" fill="#FF7020"/>
<path d="M421.749 321.514C421.749 322.616 420.856 323.509 419.754 323.509C418.652 323.509 417.759 322.616 417.759 321.514C417.759 320.412 418.652 319.519 419.754 319.519C420.856 319.519 421.749 320.412 421.749 321.514Z" fill="#FF7020"/>
<path d="M426.331 323.509C427.433 323.509 428.326 322.616 428.326 321.514C428.326 320.412 427.433 319.519 426.331 319.519C425.229 319.519 424.336 320.412 424.336 321.514C424.336 322.616 425.229 323.509 426.331 323.509Z" fill="#FF7020"/>
<path d="M434.904 321.514C434.904 322.616 434.011 323.509 432.909 323.509C431.807 323.509 430.914 322.616 430.914 321.514C430.914 320.412 431.807 319.519 432.909 319.519C434.011 319.519 434.904 320.412 434.904 321.514Z" fill="#FF7020"/>
<path d="M441.481 321.514C441.481 322.616 440.588 323.509 439.486 323.509C438.384 323.509 437.491 322.616 437.491 321.514C437.491 320.412 438.384 319.519 439.486 319.519C440.588 319.519 441.481 320.412 441.481 321.514Z" fill="#FF7020"/>
<path d="M408.546 307.548H407.397V323.51H408.546V307.548Z" fill="#263238"/>
<path d="M444.579 274.883H341.367V298.719H444.579V274.883Z" fill="#37474F"/>
<path d="M404.462 278.82H345.712V280.832H404.462V278.82Z" fill="#455A64"/>
<path d="M404.462 282.307H345.712V284.319H404.462V282.307Z" fill="#455A64"/>
<path d="M404.462 285.795H345.712V287.807H404.462V285.795Z" fill="#455A64"/>
<path d="M404.462 289.282H345.712V291.294H404.462V289.282Z" fill="#455A64"/>
<path d="M404.462 292.77H345.712V294.782H404.462V292.77Z" fill="#455A64"/>
<path d="M413.177 282.81C414.279 282.81 415.172 281.917 415.172 280.815C415.172 279.713 414.279 278.82 413.177 278.82C412.075 278.82 411.182 279.713 411.182 280.815C411.182 281.917 412.075 282.81 413.177 282.81Z" fill="#FF7020"/>
<path d="M421.749 280.815C421.749 281.917 420.856 282.81 419.754 282.81C418.652 282.81 417.759 281.917 417.759 280.815C417.759 279.713 418.652 278.82 419.754 278.82C420.856 278.82 421.749 279.713 421.749 280.815Z" fill="#FF7020"/>
<path d="M426.331 282.81C427.433 282.81 428.326 281.917 428.326 280.815C428.326 279.713 427.433 278.82 426.331 278.82C425.229 278.82 424.336 279.713 424.336 280.815C424.336 281.917 425.229 282.81 426.331 282.81Z" fill="#FF7020"/>
<path d="M434.904 280.815C434.904 281.917 434.011 282.81 432.909 282.81C431.807 282.81 430.914 281.917 430.914 280.815C430.914 279.713 431.807 278.82 432.909 278.82C434.011 278.82 434.904 279.713 434.904 280.815Z" fill="#FF7020"/>
<path d="M441.481 280.815C441.481 281.917 440.588 282.81 439.486 282.81C438.384 282.81 437.491 281.917 437.491 280.815C437.491 279.713 438.384 278.82 439.486 278.82C440.588 278.82 441.481 279.713 441.481 280.815Z" fill="#FF7020"/>
<path d="M413.177 288.796C414.279 288.796 415.172 287.903 415.172 286.801C415.172 285.699 414.279 284.806 413.177 284.806C412.075 284.806 411.182 285.699 411.182 286.801C411.182 287.903 412.075 288.796 413.177 288.796Z" fill="#FF7020"/>
<path d="M421.749 286.801C421.749 287.903 420.856 288.796 419.754 288.796C418.652 288.796 417.759 287.903 417.759 286.801C417.759 285.699 418.652 284.806 419.754 284.806C420.856 284.805 421.749 285.699 421.749 286.801Z" fill="#FF7020"/>
<path d="M426.331 288.796C427.433 288.796 428.326 287.903 428.326 286.801C428.326 285.699 427.433 284.806 426.331 284.806C425.229 284.806 424.336 285.699 424.336 286.801C424.336 287.903 425.229 288.796 426.331 288.796Z" fill="#FF7020"/>
<path d="M434.904 286.801C434.904 287.903 434.011 288.796 432.909 288.796C431.807 288.796 430.914 287.903 430.914 286.801C430.914 285.699 431.807 284.806 432.909 284.806C434.011 284.806 434.904 285.699 434.904 286.801Z" fill="#FF7020"/>
<path d="M441.481 286.801C441.481 287.903 440.588 288.796 439.486 288.796C438.384 288.796 437.491 287.903 437.491 286.801C437.491 285.699 438.384 284.806 439.486 284.806C440.588 284.805 441.481 285.699 441.481 286.801Z" fill="#FF7020"/>
<path d="M415.172 292.786C415.172 293.888 414.279 294.781 413.177 294.781C412.075 294.781 411.182 293.888 411.182 292.786C411.182 291.684 412.075 290.791 413.177 290.791C414.279 290.791 415.172 291.684 415.172 292.786Z" fill="#FF7020"/>
<path d="M421.749 292.786C421.749 293.888 420.856 294.781 419.754 294.781C418.652 294.781 417.759 293.888 417.759 292.786C417.759 291.684 418.652 290.791 419.754 290.791C420.856 290.791 421.749 291.684 421.749 292.786Z" fill="#FF7020"/>
<path d="M428.327 292.786C428.327 293.888 427.434 294.781 426.332 294.781C425.23 294.781 424.337 293.888 424.337 292.786C424.337 291.684 425.23 290.791 426.332 290.791C427.434 290.791 428.327 291.684 428.327 292.786Z" fill="#FF7020"/>
<path d="M434.904 292.786C434.904 293.888 434.011 294.781 432.909 294.781C431.807 294.781 430.914 293.888 430.914 292.786C430.914 291.684 431.807 290.791 432.909 290.791C434.011 290.791 434.904 291.684 434.904 292.786Z" fill="#FF7020"/>
<path d="M441.481 292.786C441.481 293.888 440.588 294.781 439.486 294.781C438.384 294.781 437.491 293.888 437.491 292.786C437.491 291.684 438.384 290.791 439.486 290.791C440.588 290.791 441.481 291.684 441.481 292.786Z" fill="#FF7020"/>
<path d="M408.546 278.82H407.397V294.782H408.546V278.82Z" fill="#263238"/>
<path d="M444.579 246.155H341.367V269.991H444.579V246.155Z" fill="#37474F"/>
<path d="M404.462 250.092H345.712V252.104H404.462V250.092Z" fill="#455A64"/>
<path d="M404.462 253.579H345.712V255.591H404.462V253.579Z" fill="#455A64"/>
<path d="M404.462 257.067H345.712V259.079H404.462V257.067Z" fill="#455A64"/>
<path d="M404.462 260.554H345.712V262.566H404.462V260.554Z" fill="#455A64"/>
<path d="M404.462 264.042H345.712V266.054H404.462V264.042Z" fill="#455A64"/>
<path d="M415.172 252.087C415.172 253.189 414.279 254.082 413.177 254.082C412.075 254.082 411.182 253.189 411.182 252.087C411.182 250.985 412.075 250.092 413.177 250.092C414.279 250.092 415.172 250.985 415.172 252.087Z" fill="#FF7020"/>
<path d="M421.749 252.087C421.749 253.189 420.856 254.082 419.754 254.082C418.652 254.082 417.759 253.189 417.759 252.087C417.759 250.985 418.652 250.092 419.754 250.092C420.856 250.092 421.749 250.985 421.749 252.087Z" fill="#FF7020"/>
<path d="M428.327 252.087C428.327 253.189 427.434 254.082 426.332 254.082C425.23 254.082 424.337 253.189 424.337 252.087C424.337 250.985 425.23 250.092 426.332 250.092C427.434 250.092 428.327 250.985 428.327 252.087Z" fill="#FF7020"/>
<path d="M434.904 252.087C434.904 253.189 434.011 254.082 432.909 254.082C431.807 254.082 430.914 253.189 430.914 252.087C430.914 250.985 431.807 250.092 432.909 250.092C434.011 250.092 434.904 250.985 434.904 252.087Z" fill="#FF7020"/>
<path d="M441.481 252.087C441.481 253.189 440.588 254.082 439.486 254.082C438.384 254.082 437.491 253.189 437.491 252.087C437.491 250.985 438.384 250.092 439.486 250.092C440.588 250.092 441.481 250.985 441.481 252.087Z" fill="#FF7020"/>
<path d="M415.172 258.073C415.172 259.175 414.279 260.068 413.177 260.068C412.075 260.068 411.182 259.175 411.182 258.073C411.182 256.971 412.075 256.078 413.177 256.078C414.279 256.078 415.172 256.971 415.172 258.073Z" fill="#FF7020"/>
<path d="M421.749 258.073C421.749 259.175 420.856 260.068 419.754 260.068C418.652 260.068 417.759 259.175 417.759 258.073C417.759 256.971 418.652 256.078 419.754 256.078C420.856 256.078 421.749 256.971 421.749 258.073Z" fill="#FF7020"/>
<path d="M428.327 258.073C428.327 259.175 427.434 260.068 426.332 260.068C425.23 260.068 424.337 259.175 424.337 258.073C424.337 256.971 425.23 256.078 426.332 256.078C427.434 256.078 428.327 256.971 428.327 258.073Z" fill="#FF7020"/>
<path d="M434.904 258.073C434.904 259.175 434.011 260.068 432.909 260.068C431.807 260.068 430.914 259.175 430.914 258.073C430.914 256.971 431.807 256.078 432.909 256.078C434.011 256.078 434.904 256.971 434.904 258.073Z" fill="#FF7020"/>
<path d="M441.481 258.073C441.481 259.175 440.588 260.068 439.486 260.068C438.384 260.068 437.491 259.175 437.491 258.073C437.491 256.971 438.384 256.078 439.486 256.078C440.588 256.078 441.481 256.971 441.481 258.073Z" fill="#FF7020"/>
<path d="M415.172 264.058C415.172 265.16 414.279 266.053 413.177 266.053C412.075 266.053 411.182 265.16 411.182 264.058C411.182 262.956 412.075 262.063 413.177 262.063C414.279 262.063 415.172 262.957 415.172 264.058Z" fill="#FF7020"/>
<path d="M421.749 264.058C421.749 265.16 420.856 266.053 419.754 266.053C418.652 266.053 417.759 265.16 417.759 264.058C417.759 262.956 418.652 262.063 419.754 262.063C420.856 262.063 421.749 262.957 421.749 264.058Z" fill="#FF7020"/>
<path d="M428.327 264.058C428.327 265.16 427.434 266.053 426.332 266.053C425.23 266.053 424.337 265.16 424.337 264.058C424.337 262.956 425.23 262.063 426.332 262.063C427.434 262.063 428.327 262.957 428.327 264.058Z" fill="#FF7020"/>
<path d="M434.904 264.058C434.904 265.16 434.011 266.053 432.909 266.053C431.807 266.053 430.914 265.16 430.914 264.058C430.914 262.956 431.807 262.063 432.909 262.063C434.011 262.063 434.904 262.957 434.904 264.058Z" fill="#FF7020"/>
<path d="M441.481 264.058C441.481 265.16 440.588 266.053 439.486 266.053C438.384 266.053 437.491 265.16 437.491 264.058C437.491 262.956 438.384 262.063 439.486 262.063C440.588 262.063 441.481 262.957 441.481 264.058Z" fill="#FF7020"/>
<path d="M408.546 250.092H407.397V266.054H408.546V250.092Z" fill="#263238"/>
<path d="M444.579 217.427H341.367V241.263H444.579V217.427Z" fill="#37474F"/>
<path d="M404.462 221.364H345.712V223.376H404.462V221.364Z" fill="#455A64"/>
<path d="M404.462 224.852H345.712V226.864H404.462V224.852Z" fill="#455A64"/>
<path d="M404.462 228.339H345.712V230.351H404.462V228.339Z" fill="#455A64"/>
<path d="M404.462 231.827H345.712V233.839H404.462V231.827Z" fill="#455A64"/>
<path d="M404.462 235.314H345.712V237.326H404.462V235.314Z" fill="#455A64"/>
<path d="M415.172 223.359C415.172 224.461 414.279 225.354 413.177 225.354C412.075 225.354 411.182 224.461 411.182 223.359C411.182 222.257 412.075 221.364 413.177 221.364C414.279 221.364 415.172 222.258 415.172 223.359Z" fill="#FF7020"/>
<path d="M421.749 223.359C421.749 224.461 420.856 225.354 419.754 225.354C418.652 225.354 417.759 224.461 417.759 223.359C417.759 222.257 418.652 221.364 419.754 221.364C420.856 221.364 421.749 222.258 421.749 223.359Z" fill="#FF7020"/>
<path d="M428.327 223.359C428.327 224.461 427.434 225.354 426.332 225.354C425.23 225.354 424.337 224.461 424.337 223.359C424.337 222.257 425.23 221.364 426.332 221.364C427.434 221.364 428.327 222.258 428.327 223.359Z" fill="#FF7020"/>
<path d="M434.904 223.359C434.904 224.461 434.011 225.354 432.909 225.354C431.807 225.354 430.914 224.461 430.914 223.359C430.914 222.257 431.807 221.364 432.909 221.364C434.011 221.364 434.904 222.258 434.904 223.359Z" fill="#FF7020"/>
<path d="M441.481 223.359C441.481 224.461 440.588 225.354 439.486 225.354C438.384 225.354 437.491 224.461 437.491 223.359C437.491 222.257 438.384 221.364 439.486 221.364C440.588 221.364 441.481 222.258 441.481 223.359Z" fill="#FF7020"/>
<path d="M415.172 229.345C415.172 230.447 414.279 231.34 413.177 231.34C412.075 231.34 411.182 230.447 411.182 229.345C411.182 228.243 412.075 227.35 413.177 227.35C414.279 227.35 415.172 228.243 415.172 229.345Z" fill="#FF7020"/>
<path d="M421.749 229.345C421.749 230.447 420.856 231.34 419.754 231.34C418.652 231.34 417.759 230.447 417.759 229.345C417.759 228.243 418.652 227.35 419.754 227.35C420.856 227.35 421.749 228.243 421.749 229.345Z" fill="#FF7020"/>
<path d="M428.327 229.345C428.327 230.447 427.434 231.34 426.332 231.34C425.23 231.34 424.337 230.447 424.337 229.345C424.337 228.243 425.23 227.35 426.332 227.35C427.434 227.35 428.327 228.243 428.327 229.345Z" fill="#FF7020"/>
<path d="M434.904 229.345C434.904 230.447 434.011 231.34 432.909 231.34C431.807 231.34 430.914 230.447 430.914 229.345C430.914 228.243 431.807 227.35 432.909 227.35C434.011 227.35 434.904 228.243 434.904 229.345Z" fill="#FF7020"/>
<path d="M441.481 229.345C441.481 230.447 440.588 231.34 439.486 231.34C438.384 231.34 437.491 230.447 437.491 229.345C437.491 228.243 438.384 227.35 439.486 227.35C440.588 227.35 441.481 228.243 441.481 229.345Z" fill="#FF7020"/>
<path d="M415.172 235.331C415.172 236.433 414.279 237.326 413.177 237.326C412.075 237.326 411.182 236.433 411.182 235.331C411.182 234.229 412.075 233.336 413.177 233.336C414.279 233.336 415.172 234.229 415.172 235.331Z" fill="#FF7020"/>
<path d="M421.749 235.331C421.749 236.433 420.856 237.326 419.754 237.326C418.652 237.326 417.759 236.433 417.759 235.331C417.759 234.229 418.652 233.336 419.754 233.336C420.856 233.335 421.749 234.229 421.749 235.331Z" fill="#FF7020"/>
<path d="M428.327 235.331C428.327 236.433 427.434 237.326 426.332 237.326C425.23 237.326 424.337 236.433 424.337 235.331C424.337 234.229 425.23 233.336 426.332 233.336C427.434 233.336 428.327 234.229 428.327 235.331Z" fill="#FF7020"/>
<path d="M434.904 235.331C434.904 236.433 434.011 237.326 432.909 237.326C431.807 237.326 430.914 236.433 430.914 235.331C430.914 234.229 431.807 233.336 432.909 233.336C434.011 233.336 434.904 234.229 434.904 235.331Z" fill="#FF7020"/>
<path d="M441.481 235.331C441.481 236.433 440.588 237.326 439.486 237.326C438.384 237.326 437.491 236.433 437.491 235.331C437.491 234.229 438.384 233.336 439.486 233.336C440.588 233.335 441.481 234.229 441.481 235.331Z" fill="#FF7020"/>
<path d="M408.546 221.364H407.397V237.326H408.546V221.364Z" fill="#263238"/>
<path d="M444.579 188.699H341.367V212.535H444.579V188.699Z" fill="#37474F"/>
<path d="M404.462 192.637H345.712V194.649H404.462V192.637Z" fill="#455A64"/>
<path d="M404.462 196.124H345.712V198.136H404.462V196.124Z" fill="#455A64"/>
<path d="M404.462 199.611H345.712V201.623H404.462V199.611Z" fill="#455A64"/>
<path d="M404.462 203.099H345.712V205.111H404.462V203.099Z" fill="#455A64"/>
<path d="M404.462 206.586H345.712V208.598H404.462V206.586Z" fill="#455A64"/>
<path d="M415.172 194.632C415.172 195.734 414.279 196.627 413.177 196.627C412.075 196.627 411.182 195.734 411.182 194.632C411.182 193.53 412.075 192.637 413.177 192.637C414.279 192.637 415.172 193.53 415.172 194.632Z" fill="#FF7020"/>
<path d="M421.749 194.632C421.749 195.734 420.856 196.627 419.754 196.627C418.652 196.627 417.759 195.734 417.759 194.632C417.759 193.53 418.652 192.637 419.754 192.637C420.856 192.637 421.749 193.53 421.749 194.632Z" fill="#FF7020"/>
<path d="M428.327 194.632C428.327 195.734 427.434 196.627 426.332 196.627C425.23 196.627 424.337 195.734 424.337 194.632C424.337 193.53 425.23 192.637 426.332 192.637C427.434 192.637 428.327 193.53 428.327 194.632Z" fill="#FF7020"/>
<path d="M434.904 194.632C434.904 195.734 434.011 196.627 432.909 196.627C431.807 196.627 430.914 195.734 430.914 194.632C430.914 193.53 431.807 192.637 432.909 192.637C434.011 192.637 434.904 193.53 434.904 194.632Z" fill="#FF7020"/>
<path d="M441.481 194.632C441.481 195.734 440.588 196.627 439.486 196.627C438.384 196.627 437.491 195.734 437.491 194.632C437.491 193.53 438.384 192.637 439.486 192.637C440.588 192.637 441.481 193.53 441.481 194.632Z" fill="#FF7020"/>
<path d="M413.177 202.612C414.279 202.612 415.172 201.719 415.172 200.617C415.172 199.515 414.279 198.622 413.177 198.622C412.075 198.622 411.182 199.515 411.182 200.617C411.182 201.719 412.075 202.612 413.177 202.612Z" fill="#FF7020"/>
<path d="M421.749 200.617C421.749 201.719 420.856 202.612 419.754 202.612C418.652 202.612 417.759 201.719 417.759 200.617C417.759 199.515 418.652 198.622 419.754 198.622C420.856 198.622 421.749 199.515 421.749 200.617Z" fill="#FF7020"/>
<path d="M426.331 202.612C427.433 202.612 428.326 201.719 428.326 200.617C428.326 199.515 427.433 198.622 426.331 198.622C425.229 198.622 424.336 199.515 424.336 200.617C424.336 201.719 425.229 202.612 426.331 202.612Z" fill="#FF7020"/>
<path d="M434.904 200.617C434.904 201.719 434.011 202.612 432.909 202.612C431.807 202.612 430.914 201.719 430.914 200.617C430.914 199.515 431.807 198.622 432.909 198.622C434.011 198.622 434.904 199.515 434.904 200.617Z" fill="#FF7020"/>
<path d="M441.481 200.617C441.481 201.719 440.588 202.612 439.486 202.612C438.384 202.612 437.491 201.719 437.491 200.617C437.491 199.515 438.384 198.622 439.486 198.622C440.588 198.622 441.481 199.515 441.481 200.617Z" fill="#FF7020"/>
<path d="M415.172 206.603C415.172 207.705 414.279 208.598 413.177 208.598C412.075 208.598 411.182 207.705 411.182 206.603C411.182 205.501 412.075 204.608 413.177 204.608C414.279 204.608 415.172 205.501 415.172 206.603Z" fill="#FF7020"/>
<path d="M421.749 206.603C421.749 207.705 420.856 208.598 419.754 208.598C418.652 208.598 417.759 207.705 417.759 206.603C417.759 205.501 418.652 204.608 419.754 204.608C420.856 204.608 421.749 205.501 421.749 206.603Z" fill="#FF7020"/>
<path d="M428.327 206.603C428.327 207.705 427.434 208.598 426.332 208.598C425.23 208.598 424.337 207.705 424.337 206.603C424.337 205.501 425.23 204.608 426.332 204.608C427.434 204.608 428.327 205.501 428.327 206.603Z" fill="#FF7020"/>
<path d="M434.904 206.603C434.904 207.705 434.011 208.598 432.909 208.598C431.807 208.598 430.914 207.705 430.914 206.603C430.914 205.501 431.807 204.608 432.909 204.608C434.011 204.608 434.904 205.501 434.904 206.603Z" fill="#FF7020"/>
<path d="M441.481 206.603C441.481 207.705 440.588 208.598 439.486 208.598C438.384 208.598 437.491 207.705 437.491 206.603C437.491 205.501 438.384 204.608 439.486 204.608C440.588 204.608 441.481 205.501 441.481 206.603Z" fill="#FF7020"/>
<path d="M408.546 192.637H407.397V208.599H408.546V192.637Z" fill="#263238"/>
<path d="M427.741 168.861H291.69V176.42H427.741V168.861Z" fill="#37474F"/>
<path d="M293.055 384.068H277.862V399.261H293.055V384.068Z" fill="#263238"/>
<path d="M63.0031 226.705V212.313H65.2731V226.705H63.0031Z" fill="#263238"/>
<path d="M70.7871 216.57V226.705H68.5171V212.313H70.3001L78.5301 222.691V212.333H80.8201V226.705H78.9351L70.7871 216.57Z" fill="#263238"/>
<path d="M94.6241 214.32H89.8401V226.705H87.5501V214.32H82.7461V212.313H94.6241V214.32Z" fill="#263238"/>
<path d="M106.421 224.698V226.705H96.55V212.313H106.239V214.32H98.82V218.414H105.245V220.299H98.82V224.697L106.421 224.698Z" fill="#263238"/>
<path d="M108.773 226.705V212.313H115.036C115.685 212.313 116.283 212.448 116.83 212.718C117.378 212.988 117.847 213.343 118.239 213.782C118.631 214.221 118.938 214.721 119.161 215.282C119.384 215.843 119.496 216.414 119.496 216.995C119.496 217.481 119.428 217.948 119.293 218.393C119.158 218.839 118.969 219.252 118.725 219.63C118.482 220.008 118.184 220.336 117.833 220.613C117.482 220.89 117.096 221.097 116.678 221.231L120.063 226.704H117.489L114.367 221.697H111.043V226.704H108.773V226.705ZM111.043 219.691H115.016C115.34 219.691 115.634 219.62 115.898 219.478C116.162 219.336 116.388 219.141 116.577 218.89C116.766 218.64 116.915 218.353 117.023 218.029C117.131 217.705 117.185 217.36 117.185 216.995C117.185 216.63 117.121 216.285 116.992 215.961C116.864 215.637 116.695 215.353 116.486 215.11C116.276 214.867 116.033 214.674 115.756 214.533C115.479 214.391 115.192 214.32 114.895 214.32H111.044L111.043 219.691Z" fill="#263238"/>
<path d="M124.441 216.57V226.705H122.171V212.313H123.955L132.185 222.691V212.333H134.475V226.705H132.59L124.441 216.57Z" fill="#263238"/>
<path d="M141.954 212.313H143.941L149.616 226.705H147.224L145.704 222.793H140.15L138.65 226.705H136.238L141.954 212.313ZM145.258 221.11L142.947 214.928L140.555 221.11H145.258Z" fill="#263238"/>
<path d="M151.4 226.705V212.313H153.67V224.698H161.393V226.705H151.4Z" fill="#263238"/>
<path d="M176.21 215.698C176.075 215.549 175.879 215.391 175.622 215.221C175.365 215.052 175.065 214.894 174.72 214.744C174.375 214.596 173.997 214.474 173.585 214.379C173.173 214.284 172.751 214.237 172.319 214.237C171.359 214.237 170.653 214.413 170.201 214.764C169.748 215.116 169.522 215.602 169.522 216.224C169.522 216.576 169.593 216.863 169.735 217.085C169.877 217.308 170.097 217.504 170.394 217.673C170.691 217.842 171.063 217.99 171.509 218.119C171.955 218.248 172.475 218.386 173.07 218.534C173.8 218.71 174.458 218.906 175.046 219.122C175.634 219.338 176.131 219.602 176.536 219.912C176.941 220.223 177.256 220.605 177.479 221.058C177.702 221.511 177.813 222.061 177.813 222.71C177.813 223.44 177.674 224.068 177.398 224.595C177.121 225.122 176.742 225.551 176.263 225.882C175.783 226.213 175.226 226.456 174.591 226.612C173.956 226.767 173.274 226.845 172.544 226.845C171.449 226.845 170.392 226.68 169.372 226.348C168.351 226.017 167.429 225.534 166.605 224.899L167.639 222.953C167.814 223.129 168.068 223.325 168.399 223.541C168.73 223.757 169.115 223.957 169.554 224.139C169.993 224.321 170.469 224.477 170.983 224.605C171.496 224.733 172.03 224.798 172.584 224.798C173.476 224.798 174.165 224.643 174.652 224.331C175.139 224.021 175.382 223.561 175.382 222.953C175.382 222.588 175.29 222.284 175.108 222.041C174.926 221.798 174.665 221.585 174.328 221.402C173.99 221.22 173.578 221.054 173.091 220.905C172.605 220.756 172.05 220.601 171.429 220.439C170.712 220.25 170.087 220.05 169.554 219.841C169.02 219.631 168.577 219.378 168.226 219.081C167.875 218.783 167.608 218.436 167.426 218.037C167.243 217.639 167.152 217.155 167.152 216.588C167.152 215.885 167.287 215.26 167.557 214.713C167.827 214.166 168.195 213.707 168.661 213.335C169.128 212.964 169.678 212.683 170.313 212.494C170.948 212.305 171.637 212.21 172.381 212.21C173.354 212.21 174.252 212.366 175.077 212.676C175.901 212.987 176.624 213.372 177.246 213.832L176.21 215.698Z" fill="#263238"/>
<path d="M189.953 224.698V226.705H180.082V212.313H189.771V214.32H182.352V218.414H188.778V220.299H182.352V224.697L189.953 224.698Z" fill="#263238"/>
<path d="M192.304 226.705V212.313H198.567C199.216 212.313 199.814 212.448 200.361 212.718C200.909 212.988 201.378 213.343 201.77 213.782C202.162 214.221 202.469 214.721 202.692 215.282C202.915 215.843 203.027 216.414 203.027 216.995C203.027 217.481 202.959 217.948 202.824 218.393C202.689 218.839 202.5 219.252 202.256 219.63C202.013 220.008 201.715 220.336 201.364 220.613C201.013 220.89 200.627 221.097 200.209 221.231L203.594 226.704H201.02L197.898 221.697H194.574V226.704H192.304V226.705ZM194.574 219.691H198.547C198.871 219.691 199.165 219.62 199.429 219.478C199.693 219.336 199.919 219.141 200.108 218.89C200.297 218.64 200.446 218.353 200.554 218.029C200.662 217.705 200.716 217.36 200.716 216.995C200.716 216.63 200.652 216.285 200.523 215.961C200.395 215.637 200.225 215.353 200.016 215.11C199.806 214.867 199.563 214.674 199.286 214.533C199.009 214.391 198.721 214.32 198.424 214.32H194.573V219.691H194.574Z" fill="#263238"/>
<path d="M206.27 212.313L210.608 223.846L214.925 212.313H217.337L211.58 226.705H209.634L203.857 212.313H206.27Z" fill="#263238"/>
<path d="M228.972 224.698V226.705H219.101V212.313H228.79V214.32H221.371V218.414H227.796V220.299H221.371V224.697L228.972 224.698Z" fill="#263238"/>
<path d="M231.323 226.705V212.313H237.586C238.235 212.313 238.833 212.448 239.38 212.718C239.928 212.988 240.397 213.343 240.789 213.782C241.18 214.221 241.488 214.721 241.711 215.282C241.934 215.843 242.046 216.414 242.046 216.995C242.046 217.481 241.978 217.948 241.843 218.393C241.708 218.839 241.519 219.252 241.276 219.63C241.032 220.008 240.735 220.336 240.384 220.613C240.033 220.89 239.647 221.097 239.229 221.231L242.614 226.704H240.04L236.918 221.697H233.594V226.704H231.323V226.705ZM233.593 219.691H237.566C237.89 219.691 238.184 219.62 238.448 219.478C238.712 219.336 238.938 219.141 239.127 218.89C239.316 218.64 239.465 218.353 239.573 218.029C239.681 217.705 239.735 217.36 239.735 216.995C239.735 216.63 239.671 216.285 239.542 215.961C239.414 215.637 239.244 215.353 239.035 215.11C238.825 214.867 238.582 214.674 238.305 214.533C238.028 214.391 237.741 214.32 237.443 214.32H233.592V219.691H233.593Z" fill="#263238"/>
<path d="M132.078 245.89V248.809H121.963V234.418H131.895V237.337H125.287V240.135H130.962V242.831H125.287V245.892H132.078V245.89Z" fill="#263238"/>
<path d="M134.105 248.809V234.418H140.591C141.266 234.418 141.892 234.56 142.466 234.843C143.04 235.127 143.536 235.499 143.956 235.958C144.374 236.417 144.702 236.938 144.939 237.519C145.175 238.1 145.294 238.688 145.294 239.282C145.294 239.728 145.24 240.157 145.132 240.569C145.024 240.981 144.868 241.369 144.666 241.734C144.463 242.099 144.216 242.427 143.926 242.717C143.636 243.008 143.308 243.254 142.943 243.457L146.105 248.809H142.355L139.599 244.167H137.43V248.809H134.105ZM137.43 241.269H140.47C140.862 241.269 141.2 241.083 141.483 240.711C141.767 240.339 141.909 239.863 141.909 239.282C141.909 238.688 141.747 238.215 141.423 237.863C141.099 237.512 140.747 237.336 140.369 237.336H137.43V241.269Z" fill="#263238"/>
<path d="M147.686 248.809V234.418H154.172C154.848 234.418 155.473 234.56 156.047 234.843C156.621 235.127 157.118 235.499 157.537 235.958C157.955 236.417 158.283 236.938 158.52 237.519C158.756 238.1 158.875 238.688 158.875 239.282C158.875 239.728 158.821 240.157 158.713 240.569C158.605 240.981 158.449 241.369 158.247 241.734C158.044 242.099 157.797 242.427 157.507 242.717C157.217 243.008 156.889 243.254 156.524 243.457L159.686 248.809H155.936L153.18 244.167H151.011V248.809H147.686ZM151.011 241.269H154.051C154.443 241.269 154.781 241.083 155.064 240.711C155.348 240.339 155.49 239.863 155.49 239.282C155.49 238.688 155.328 238.215 155.003 237.863C154.679 237.512 154.327 237.336 153.949 237.336H151.01V241.269H151.011Z" fill="#263238"/>
<path d="M167.571 248.93C166.503 248.93 165.53 248.721 164.652 248.302C163.774 247.884 163.023 247.333 162.402 246.65C161.78 245.968 161.297 245.187 160.952 244.309C160.608 243.43 160.435 242.525 160.435 241.593C160.435 240.647 160.614 239.735 160.972 238.857C161.33 237.979 161.83 237.205 162.472 236.536C163.114 235.867 163.874 235.333 164.753 234.935C165.631 234.537 166.591 234.337 167.631 234.337C168.698 234.337 169.671 234.546 170.55 234.965C171.428 235.384 172.178 235.938 172.8 236.627C173.421 237.316 173.901 238.1 174.239 238.978C174.577 239.856 174.746 240.748 174.746 241.654C174.746 242.6 174.566 243.512 174.209 244.39C173.851 245.268 173.354 246.042 172.719 246.711C172.083 247.38 171.327 247.917 170.449 248.322C169.571 248.728 168.611 248.93 167.571 248.93ZM163.821 241.633C163.821 242.187 163.902 242.724 164.064 243.245C164.226 243.765 164.466 244.228 164.784 244.633C165.101 245.038 165.496 245.363 165.97 245.606C166.443 245.849 166.983 245.971 167.591 245.971C168.226 245.971 168.78 245.843 169.253 245.586C169.726 245.329 170.118 244.995 170.428 244.583C170.739 244.171 170.972 243.705 171.127 243.184C171.282 242.664 171.36 242.133 171.36 241.593C171.36 241.039 171.279 240.502 171.117 239.981C170.955 239.461 170.712 239.001 170.387 238.603C170.063 238.205 169.667 237.887 169.201 237.65C168.735 237.414 168.198 237.295 167.589 237.295C166.954 237.295 166.404 237.42 165.937 237.67C165.471 237.92 165.079 238.248 164.762 238.653C164.444 239.058 164.208 239.521 164.053 240.041C163.898 240.563 163.821 241.093 163.821 241.633Z" fill="#263238"/>
<path d="M176.672 248.809V234.418H183.158C183.833 234.418 184.459 234.56 185.033 234.843C185.607 235.127 186.104 235.499 186.523 235.958C186.941 236.417 187.269 236.938 187.506 237.519C187.742 238.1 187.861 238.688 187.861 239.282C187.861 239.728 187.807 240.157 187.699 240.569C187.591 240.981 187.435 241.369 187.233 241.734C187.03 242.099 186.783 242.427 186.493 242.717C186.203 243.008 185.875 243.254 185.51 243.457L188.672 248.809H184.922L182.166 244.167H179.997V248.809H176.672ZM179.996 241.269H183.036C183.427 241.269 183.766 241.083 184.049 240.711C184.333 240.339 184.475 239.863 184.475 239.282C184.475 238.688 184.313 238.215 183.989 237.863C183.665 237.512 183.313 237.336 182.935 237.336H179.996V241.269Z" fill="#263238"/>
<path d="M82.721 113.277V135.488C84.267 133.287 86.446 131.58 89.26 130.369C90.75 129.764 92.489 129.461 94.476 129.461C101.318 129.461 106.369 131.855 109.626 136.644C112.441 140.772 113.849 146.608 113.849 154.148V176.441C113.849 184.093 111.426 190.368 106.583 195.266C101.959 200.001 96.124 202.367 89.079 202.367C82.253 202.367 76.583 199.89 72.07 194.936C67.721 190.203 65.547 184.423 65.547 177.597V175.12L80.492 173.964L80.823 177.515C81.207 181.643 82.887 184.396 85.859 185.771C86.739 186.212 87.675 186.432 88.666 186.432C95.051 186.432 98.244 183.102 98.244 176.442V151.094C98.244 148.067 97.137 145.562 94.923 143.58C93.872 142.645 92.405 142.176 90.524 142.176C87.757 142.176 85.709 143.249 84.382 145.396C83.275 147.268 82.721 149.25 82.721 151.341V154.148H67.116V97.589H112.776V113.277H82.721Z" fill="#FF7020"/>
<path d="M176.434 177.596C176.434 184.478 174.011 190.312 169.168 195.1C164.324 199.889 158.517 202.283 151.747 202.283C144.865 202.283 139.017 199.876 134.201 195.058C129.383 190.243 126.976 184.422 126.976 177.595V121.12C126.976 114.24 129.398 108.392 134.242 103.575C139.085 98.759 144.92 96.35 151.746 96.35C158.626 96.35 164.461 98.772 169.25 103.615C174.038 108.46 176.433 114.295 176.433 121.119V177.596H176.434ZM160.25 120.79C160.25 118.313 159.37 116.195 157.608 114.432C155.845 112.671 153.727 111.79 151.25 111.79C148.773 111.79 146.668 112.671 144.933 114.432C143.199 116.194 142.332 118.312 142.332 120.79V177.348C142.332 179.825 143.199 181.945 144.933 183.706C146.667 185.468 148.773 186.348 151.25 186.348C153.727 186.348 155.845 185.468 157.608 183.706C159.369 181.945 160.25 179.826 160.25 177.348V120.79Z" fill="#FF7020"/>
<path d="M239.348 177.596C239.348 184.478 236.925 190.312 232.082 195.1C227.238 199.889 221.431 202.283 214.661 202.283C207.779 202.283 201.932 199.876 197.115 195.058C192.297 190.243 189.89 184.422 189.89 177.595V121.12C189.89 114.24 192.312 108.392 197.156 103.575C201.999 98.759 207.834 96.35 214.66 96.35C221.54 96.35 227.375 98.772 232.164 103.615C236.953 108.46 239.347 114.295 239.347 121.119V177.596H239.348ZM223.165 120.79C223.165 118.313 222.284 116.195 220.523 114.432C218.761 112.671 216.642 111.79 214.165 111.79C211.688 111.79 209.583 112.671 207.849 114.432C206.115 116.194 205.248 118.312 205.248 120.79V177.348C205.248 179.825 206.115 181.945 207.849 183.706C209.583 185.468 211.689 186.348 214.165 186.348C216.641 186.348 218.76 185.468 220.523 183.706C222.284 181.945 223.165 179.826 223.165 177.348V120.79Z" fill="#FF7020"/>
<path d="M70.013 353.737H43.458V380.292H70.013V353.737Z" fill="#37474F"/>
<path d="M56.735 375.885C61.6338 375.885 65.605 371.914 65.605 367.015C65.605 362.116 61.6338 358.145 56.735 358.145C51.8362 358.145 47.865 362.116 47.865 367.015C47.865 371.914 51.8362 375.885 56.735 375.885Z" fill="#455A64"/>
<path d="M55.1121 363.432H53.1171V370.748H55.1121V363.432Z" fill="#263238"/>
<path d="M60.671 363.432H58.676V370.748H60.671V363.432Z" fill="#263238"/>
<path d="M36.8521 421.592L90.139 421.349L143.426 421.261L250 421.093L356.574 421.26L409.861 421.348L463.147 421.592L409.861 421.837L356.574 421.925L250 422.091L143.426 421.924L90.139 421.835L36.8521 421.592Z" fill="#263238"/>
<path d="M128.085 396.525C129.052 398.64 125.238 413.831 124.041 416.948C122.844 420.065 118.652 437.479 116.61 438.231C114.568 438.984 104.679 438.768 103.281 438.231C101.884 437.693 103.281 434.722 104.893 433.682C106.505 432.642 108.426 431.046 108.426 431.046C108.426 431.046 105.538 404.157 106.076 401.147C106.613 398.137 125.479 390.828 128.085 396.525Z" fill="#FF7020"/>
<path opacity="0.1" d="M128.085 396.525C129.052 398.64 125.238 413.831 124.041 416.948C122.844 420.065 118.652 437.479 116.61 438.231C114.568 438.984 104.679 438.768 103.281 438.231C101.884 437.693 103.281 434.722 104.893 433.682C106.505 432.642 108.426 431.046 108.426 431.046C108.426 431.046 105.538 404.157 106.076 401.147C106.613 398.137 125.479 390.828 128.085 396.525Z" fill="black"/>
<path opacity="0.1" d="M107.4 437.06C107.509 436.535 107.728 436.008 108.046 435.573C108.367 435.133 108.749 434.746 109.185 434.419C109.59 434.115 110.097 433.824 110.602 433.731C110.668 433.719 110.72 433.799 110.667 433.849C110.491 434.014 110.291 434.151 110.117 434.324C109.942 434.498 109.763 434.67 109.596 434.851C109.269 435.202 108.993 435.595 108.75 436.008C108.505 436.425 108.268 436.844 108.056 437.279C107.842 437.719 107.717 438.192 107.549 438.649C107.516 438.739 107.378 438.746 107.354 438.644C107.229 438.122 107.292 437.579 107.4 437.06Z" fill="black"/>
<path opacity="0.1" d="M104.508 435.475C105.029 434.505 105.937 433.813 106.923 433.368C106.985 433.34 107.055 433.419 106.997 433.469C106.268 434.102 105.549 434.779 105.082 435.636C104.618 436.488 104.376 437.548 104.701 438.488C104.716 438.532 104.654 438.548 104.631 438.515C104.004 437.619 103.997 436.429 104.508 435.475Z" fill="black"/>
<path opacity="0.1" d="M106.938 415.971L120.528 428.831C122.028 423.901 123.428 418.541 124.038 416.951C125.238 413.831 129.048 398.641 128.088 396.521C125.478 390.831 106.608 398.141 106.078 401.151C105.828 402.571 106.328 409.271 106.938 415.971Z" fill="black"/>
<path d="M179.406 411.722C179.958 412.244 185.305 407.183 186.127 404.812C186.949 402.441 183.525 395.75 184.159 394.613C184.792 393.476 187.707 392.56 189.218 394.311C190.728 396.062 194.605 405.654 193.797 409.754C192.989 413.854 184.737 423.016 183.875 422.969C183.013 422.922 179.406 411.722 179.406 411.722Z" fill="#FF7020"/>
<path opacity="0.1" d="M179.407 411.724C179.407 411.724 183.015 422.92 183.872 422.969C184.503 423.001 189.082 418.115 191.816 413.884L184.325 407.566C182.441 409.799 179.787 412.08 179.407 411.724Z" fill="black"/>
<path d="M149.189 365.46H104.786C104.786 365.46 101.49 394.697 101.848 398.567C102.206 402.437 121.722 431.109 127.774 434.808C133.915 438.562 168.603 438.688 177.064 436.826C183.642 435.379 189.134 426.982 186.402 414.045C185.208 408.391 169.795 394.912 167.645 392.332C165.495 389.753 149.189 365.46 149.189 365.46Z" fill="#C7C7C7"/>
<path d="M101.848 398.571C102.208 402.441 121.718 431.111 127.778 434.811C133.918 438.561 168.598 438.691 177.068 436.831C183.638 435.381 189.138 426.981 186.398 414.041C185.208 408.391 169.798 394.911 167.648 392.331C166.328 390.751 159.708 381.031 154.768 373.731C151.638 369.111 149.188 365.461 149.188 365.461H104.788C104.788 365.461 103.958 372.801 103.178 380.611C102.398 388.391 101.668 396.641 101.848 398.571Z" fill="#FF7020"/>
<path opacity="0.1" d="M103.178 380.611C127.038 387.971 148.258 377.501 154.768 373.731C151.638 369.111 149.188 365.461 149.188 365.461H104.788C104.788 365.461 103.958 372.801 103.178 380.611Z" fill="black"/>
<path d="M177.91 412.635C177.91 412.635 165.686 404.968 157.118 406.353C148.549 407.739 145.525 425.336 149.63 435.238C149.63 435.238 141.811 437.56 141.811 441.338C141.811 443.489 146.277 444.175 152.724 444.023C159.172 443.871 171.981 443.741 172.265 442.121C172.549 440.501 171.421 438.27 171.421 438.27C171.421 438.27 182.987 436.966 185.257 429.305C187.527 421.644 179.839 413.934 177.91 412.635Z" fill="#FF7020"/>
<path opacity="0.1" d="M161.224 436.106C164.462 437.498 168.003 438.167 171.509 438.392C171.576 438.396 171.597 438.508 171.523 438.517C167.891 438.929 164.337 438.014 161.185 436.192C161.14 436.166 161.174 436.084 161.224 436.106Z" fill="black"/>
<path opacity="0.1" d="M146.839 444.069C147.16 442.606 148.302 441.451 149.5 440.627C150.195 440.149 150.961 439.763 151.76 439.49C152.675 439.177 153.625 439.01 154.545 438.721C154.621 438.697 154.675 438.81 154.598 438.836C153.804 439.102 153.036 439.507 152.297 439.896C151.555 440.287 150.827 440.712 150.133 441.183C148.934 441.998 148.023 443.05 147.142 444.184C147.048 444.305 146.801 444.244 146.839 444.069Z" fill="black"/>
<path opacity="0.1" d="M148.422 438.002C148.503 437.99 148.529 438.097 148.453 438.125C146.09 438.995 144.207 441.078 143.19 443.344C143.147 443.44 142.971 443.44 142.986 443.311C143.301 440.501 145.689 438.401 148.422 438.002Z" fill="black"/>
<path opacity="0.1" d="M144.608 437.451C144.578 437.471 144.628 437.511 144.658 437.501C144.858 437.461 147.048 435.991 149.468 435.291C149.668 435.641 149.878 435.991 150.108 436.331C150.148 436.401 150.258 436.341 150.218 436.271C148.698 433.221 148.088 429.781 148.078 426.391C148.068 424.591 148.208 422.771 148.398 420.981C148.388 420.971 148.388 420.961 148.398 420.951C148.858 417.791 149.768 414.701 151.298 411.931C152.228 410.211 153.428 408.551 155.068 407.591C156.708 406.641 158.758 406.491 160.718 406.571C162.708 406.671 164.688 407.101 166.618 407.661C168.558 408.191 170.468 408.891 172.338 409.681C168.768 407.761 164.898 406.251 160.778 405.811C158.728 405.611 156.538 405.751 154.618 406.801C152.718 407.891 151.428 409.651 150.418 411.441C148.478 415.121 147.518 419.221 147.348 423.321C147.328 423.791 147.308 424.271 147.308 424.741C147.308 424.751 147.308 424.751 147.308 424.761C147.278 425.391 147.268 426.011 147.288 426.641C147.368 429.601 147.968 432.571 149.398 435.171C147.228 435.611 145.968 436.231 144.608 437.451Z" fill="black"/>
<path d="M142.433 400.287C143.4 402.402 139.586 417.593 138.389 420.71C137.192 423.827 133 441.241 130.958 441.993C128.916 442.745 119.026 442.53 117.629 441.993C116.232 441.455 117.629 438.484 119.241 437.444C120.853 436.404 122.774 434.808 122.774 434.808C122.774 434.808 119.886 407.919 120.424 404.909C120.961 401.899 139.827 394.59 142.433 400.287Z" fill="#FF7020"/>
<path opacity="0.1" d="M135.766 429.148C136.677 426.405 137.868 423.755 138.779 421.018C138.815 420.909 138.989 420.96 138.954 421.07C138.252 423.274 137.715 425.527 137.062 427.749C137.157 427.598 137.246 427.444 137.343 427.295C137.915 426.411 138.62 425.541 138.915 424.522C138.947 424.411 139.12 424.463 139.09 424.574C138.959 425.051 138.731 425.479 138.499 425.913C138.237 426.404 137.97 426.892 137.705 427.381C137.361 428.017 136.989 428.641 136.601 429.255C136.587 429.298 136.576 429.341 136.562 429.383C135.648 432.135 134.743 434.868 133.53 437.506C133.466 437.645 133.259 437.591 133.294 437.436C133.927 434.617 134.854 431.894 135.766 429.148Z" fill="black"/>
<path opacity="0.1" d="M120.046 409.204C120.049 409.146 120.158 409.129 120.167 409.192C120.455 411.231 120.579 413.293 120.785 415.34C120.999 417.469 121.259 419.593 121.494 421.72C121.96 425.953 122.668 430.167 123.006 434.409C123.02 434.589 122.698 434.613 122.652 434.443C121.535 430.352 121.041 426.144 120.6 421.96C120.381 419.884 120.249 417.8 120.149 415.717C120.044 413.556 119.92 411.365 120.046 409.204Z" fill="black"/>
<path opacity="0.1" d="M121.265 440.61C121.374 440.084 121.593 439.558 121.911 439.123C122.232 438.683 122.615 438.295 123.05 437.969C123.455 437.665 123.962 437.374 124.467 437.281C124.533 437.269 124.585 437.349 124.532 437.399C124.356 437.564 124.155 437.701 123.982 437.874C123.807 438.048 123.629 438.22 123.461 438.401C123.134 438.752 122.857 439.145 122.615 439.558C122.37 439.975 122.133 440.394 121.921 440.829C121.707 441.269 121.581 441.742 121.414 442.199C121.381 442.289 121.243 442.296 121.219 442.194C121.094 441.673 121.158 441.13 121.265 440.61Z" fill="black"/>
<path opacity="0.1" d="M118.374 439.026C118.895 438.056 119.803 437.364 120.789 436.919C120.851 436.891 120.921 436.97 120.863 437.02C120.134 437.653 119.414 438.331 118.948 439.187C118.484 440.039 118.242 441.099 118.567 442.039C118.582 442.083 118.52 442.099 118.497 442.066C117.869 441.17 117.862 439.98 118.374 439.026Z" fill="black"/>
<path d="M121.777 324.806C122.257 323.053 117.881 316.848 116.212 314.761C114.543 312.674 105.348 309.542 102.412 311.149C101.259 311.78 99.118 316.195 96.227 320.032C91.754 325.968 86.526 332.196 88.425 333.872C93.035 337.94 103.537 331.524 106.945 329.368C110.354 327.212 113.471 324.59 114.301 324.683C115.397 324.805 117.705 326.54 118.625 326.643C120.817 326.886 121.777 324.806 121.777 324.806Z" fill="#FF7020"/>
<path opacity="0.1" d="M121.777 324.806C122.257 323.053 117.881 316.848 116.212 314.761C114.543 312.674 105.348 309.542 102.412 311.149C101.259 311.78 99.118 316.195 96.227 320.032C91.754 325.968 86.526 332.196 88.425 333.872C93.035 337.94 103.537 331.524 106.945 329.368C110.354 327.212 113.471 324.59 114.301 324.683C115.397 324.805 117.705 326.54 118.625 326.643C120.817 326.886 121.777 324.806 121.777 324.806Z" fill="black"/>
<path d="M142.953 318.592C153.68 325.006 158.442 342.074 158.732 344.798C158.968 347.023 164.084 354.895 163.17 363.366C162.582 368.813 152.804 376.043 144.843 375.971C143.378 375.958 130.986 380.452 120.525 379.729C110.064 379.006 102.13 371.583 101.821 370.952C101.513 370.321 93.031 369.096 92.498 360.349C91.647 346.385 105.897 322.592 109.974 319.341C116.721 313.959 135.665 314.234 142.953 318.592Z" fill="#FF7020"/>
<path d="M137.903 325.953C137.696 324.054 143.268 318.343 145.347 316.454C147.426 314.566 157.488 312.844 160.268 314.999C161.359 315.845 162.848 320.783 165.21 325.244C168.865 332.147 173.256 339.479 171.006 340.903C165.546 344.359 155.715 335.955 152.536 333.151C149.357 330.347 146.558 327.109 145.682 327.066C144.525 327.01 141.841 328.428 140.869 328.381C138.553 328.271 137.903 325.953 137.903 325.953Z" fill="#FF7020"/>
<path opacity="0.1" d="M137.903 325.953C137.696 324.054 143.268 318.343 145.347 316.454C147.426 314.566 157.488 312.844 160.268 314.999C161.359 315.845 162.848 320.783 165.21 325.244C168.865 332.147 173.256 339.479 171.006 340.903C165.546 344.359 155.715 335.955 152.536 333.151C149.357 330.347 146.558 327.109 145.682 327.066C144.525 327.01 141.841 328.428 140.869 328.381C138.553 328.271 137.903 325.953 137.903 325.953Z" fill="black"/>
<path opacity="0.1" d="M118.302 349.929C124.884 349.988 127.879 357.037 128.673 358.872C129.468 360.708 133.525 364.913 133.632 369.302C133.739 373.691 125.4 378.597 116.594 377.047C107.831 375.505 103.185 370.563 103.235 366.102C103.275 362.512 106.66 359.404 107.034 358.457C107.409 357.51 112.305 349.875 118.302 349.929Z" fill="black"/>
<path opacity="0.1" d="M134.48 362.311C135.356 363.308 136.096 364.424 136.688 365.621C137.283 366.816 137.749 368.092 137.978 369.443C138.187 370.782 138.174 372.25 137.549 373.541C137.249 374.182 136.8 374.746 136.271 375.188C135.717 375.604 135.115 375.919 134.48 376.111C135.585 375.374 136.449 374.397 136.828 373.243C137.223 372.097 137.199 370.834 136.993 369.603C136.803 368.363 136.406 367.142 135.976 365.928C135.521 364.722 135.03 363.515 134.48 362.311Z" fill="black"/>
<path opacity="0.1" d="M104.332 359.681C103.761 360.387 103.222 361.076 102.724 361.779C102.24 362.488 101.769 363.198 101.454 363.963C101.118 364.717 100.919 365.506 100.874 366.321C100.839 367.146 101.065 367.956 101.339 368.832C100.716 368.187 100.212 367.333 100.095 366.367C99.9709 365.408 100.169 364.429 100.54 363.559C100.923 362.689 101.485 361.931 102.129 361.278C102.773 360.629 103.502 360.063 104.332 359.681Z" fill="black"/>
<path d="M207.142 453.857C196.366 453.857 184.478 453.674 172.532 453.452C166.372 453.338 161.506 453.247 158.469 453.247C142.944 453.247 138.476 433.291 134.155 413.992C133.552 411.303 132.949 408.61 132.318 405.966C131.085 400.805 130.067 395.587 129.082 390.541C126.037 374.935 123.407 361.456 116.531 360.719C107.445 359.752 99.354 373.341 96.4 394.552L94.42 394.277C97.534 371.92 106.499 357.621 116.744 358.731C125.088 359.626 127.848 373.775 131.045 390.159C132.026 395.184 133.04 400.382 134.264 405.502C134.898 408.155 135.503 410.857 136.108 413.557C140.448 432.94 144.547 451.248 158.47 451.248C161.526 451.248 166.4 451.339 172.57 451.453C186.088 451.706 204.601 452.05 220.274 451.742C245.691 451.245 248.699 449.238 249.016 448.635C249.002 444.474 222.174 439.467 212.075 437.582C201.866 435.677 201.468 435.602 201.583 434.349C201.687 433.225 202.936 433.225 204.827 433.225H246.77C259.926 433.225 264.165 414.299 266.698 402.992C267.425 399.748 267.999 397.184 268.633 395.864C271.572 389.74 279.009 390.635 279.323 390.675L279.065 392.657C278.806 392.627 272.743 391.919 270.435 396.729C269.9 397.844 269.32 400.432 268.649 403.429C265.985 415.321 261.527 435.225 246.77 435.225H210.351C211.033 435.353 211.734 435.484 212.442 435.616C236.863 440.175 251.002 443.778 251.002 448.708C251.002 449.07 250.89 449.611 250.356 450.135C247.378 453.055 229.709 453.857 207.142 453.857Z" fill="#263238"/>
<path d="M101.758 393.098L89.4969 392.363L89.0565 399.716L101.317 400.451L101.758 393.098Z" fill="#455A64"/>
<path d="M99.5895 390.629L91.9403 390.17L91.8006 392.502L99.4498 392.96L99.5895 390.629Z" fill="#37474F"/>
<path d="M93.1149 399.961L91.6725 399.874L91.3363 405.485L92.7787 405.571L93.1149 399.961Z" fill="#FF7020"/>
<path d="M98.6638 400.293L97.2214 400.206L96.8853 405.817L98.3277 405.903L98.6638 400.293Z" fill="#FF7020"/>
<path d="M283.053 385.523V397.806H288.419V385.523H283.053Z" fill="#455A64"/>
<path d="M278.717 387.832V395.495H283.053V387.832H278.717Z" fill="#37474F"/>
<path d="M109.952 360.602C109.952 360.602 112.562 363.621 113.573 362.984C114.584 362.347 117.113 356.395 117.113 356.395C117.113 356.395 117.716 363.96 119.669 364.168C121.623 364.376 124.956 361.391 124.956 361.391L117.071 355.917L109.952 360.602Z" fill="#FF7020"/>
<path opacity="0.1" d="M109.952 360.602C109.952 360.602 112.562 363.621 113.573 362.984C114.584 362.347 117.113 356.395 117.113 356.395C117.113 356.395 117.716 363.96 119.669 364.168C121.623 364.376 124.956 361.391 124.956 361.391L117.071 355.917L109.952 360.602Z" fill="black"/>
<path opacity="0.1" d="M148.65 351.212C149.423 348.812 149.699 346.245 149.455 343.67C149.342 342.38 149.038 341.09 148.541 339.842C148.295 339.218 147.967 338.618 147.583 338.05C147.205 337.478 146.754 336.944 146.241 336.471C145.989 336.229 145.707 336.023 145.426 335.815C145.141 335.62 144.841 335.459 144.547 335.283L144.101 335.032L143.627 334.837C143.307 334.719 143.003 334.556 142.67 334.482C141.364 334.091 140.001 333.984 138.69 334.104C136.061 334.335 133.61 335.358 131.613 336.891C133.972 336.053 136.391 335.519 138.74 335.577C139.905 335.637 141.059 335.763 142.112 336.181C142.382 336.263 142.627 336.406 142.886 336.512L143.27 336.683L143.627 336.906C143.862 337.056 144.114 337.188 144.339 337.346C144.556 337.511 144.774 337.674 144.97 337.865C145.794 338.582 146.426 339.527 146.911 340.561C147.424 341.588 147.737 342.731 148.006 343.894C148.494 346.24 148.65 348.704 148.65 351.212Z" fill="black"/>
<path opacity="0.1" d="M99.873 346.103C100.033 343.967 100.329 341.886 100.924 339.951C101.528 338.03 102.489 336.266 103.974 335.189C104.336 334.912 104.746 334.694 105.153 334.498C105.538 334.33 105.964 334.209 106.418 334.146C107.327 334.016 108.315 334.078 109.31 334.21C111.305 334.516 113.322 335.117 115.368 335.776C114.552 335.061 113.632 334.487 112.68 333.962C112.198 333.711 111.706 333.475 111.2 333.259C110.69 333.057 110.169 332.872 109.632 332.718C108.559 332.412 107.414 332.234 106.211 332.336C105.612 332.392 104.997 332.522 104.409 332.776C103.857 333.025 103.325 333.307 102.85 333.682C101.877 334.399 101.124 335.367 100.587 336.393C100.047 337.424 99.721 338.523 99.536 339.62C99.173 341.815 99.289 344.028 99.873 346.103Z" fill="black"/>
<path d="M132.364 348.07C132.395 347.956 132.616 348.224 132.607 348.348C132.37 351.36 132.656 354.851 135.606 355.984C135.697 356.019 135.681 356.17 135.571 356.151C131.939 355.523 131.611 350.886 132.364 348.07Z" fill="#263238"/>
<path d="M135.456 345.047C140.795 344.91 140.787 354.662 135.841 354.789C130.975 354.914 130.982 345.162 135.456 345.047Z" fill="#263238"/>
<path d="M111.734 345.704C111.72 345.587 111.463 345.821 111.455 345.945C111.27 348.961 110.5 352.378 107.421 353.088C107.326 353.11 107.321 353.262 107.432 353.258C111.117 353.144 112.088 348.598 111.734 345.704Z" fill="#263238"/>
<path d="M109.094 342.28C103.827 341.4 102.475 351.058 107.354 351.873C112.156 352.675 113.508 343.017 109.094 342.28Z" fill="#263238"/>
<path d="M116.914 356.122C117.86 356.43 124.448 354.346 123.947 352.35C123.404 350.19 114.14 349.681 112.976 351.084C111.812 352.486 115.923 355.799 116.914 356.122Z" fill="#263238"/>
<path d="M125.128 361.285C124.068 362.053 122.979 362.807 121.776 363.38C121.19 363.66 120.521 363.911 119.958 363.899C119.581 363.974 119.262 363.455 119.045 362.97C118.609 361.97 118.399 360.865 118.207 359.777C118.011 358.685 117.896 357.574 117.784 356.479L117.472 353.437L116.561 356.392C116.281 357.301 115.952 358.214 115.622 359.117C115.275 360.015 114.911 360.916 114.445 361.759C114.327 361.969 114.198 362.173 114.055 362.361C113.917 362.548 113.756 362.736 113.596 362.836C113.483 362.924 113.279 362.928 113.04 362.895C112.807 362.83 112.556 362.739 112.326 362.599C111.395 362.046 110.645 361.254 109.948 360.469C110.434 361.351 111.018 362.214 111.955 362.934C112.186 363.117 112.48 363.27 112.821 363.387C113.011 363.424 113.195 363.482 113.412 363.465C113.606 363.48 113.887 363.41 114.048 363.319C114.392 363.138 114.592 362.927 114.788 362.717C114.977 362.505 115.139 362.289 115.288 362.07C115.887 361.197 116.319 360.292 116.719 359.381C117.126 358.47 117.457 357.552 117.768 356.615L116.545 356.528C116.62 357.665 116.793 358.78 117.005 359.904C117.109 360.465 117.256 361.023 117.423 361.581C117.599 362.138 117.78 362.698 118.087 363.248C118.243 363.523 118.409 363.799 118.676 364.068C118.817 364.201 118.973 364.337 119.214 364.444C119.333 364.499 119.467 364.541 119.624 364.559C119.786 364.588 119.867 364.561 119.992 364.562C120.906 364.491 121.546 364.129 122.15 363.788C123.326 363.063 124.29 362.206 125.128 361.285Z" fill="#263238"/>
<path d="M74.902 395.894C76.899 395.734 78.88 395.801 80.858 395.924C82.834 396.069 84.806 396.271 86.763 396.702C84.766 396.863 82.785 396.796 80.807 396.672C78.831 396.526 76.858 396.323 74.902 395.894Z" fill="#263238"/>
<path d="M103.685 402.219C105.585 402.847 107.383 403.677 109.155 404.558C110.917 405.458 112.654 406.41 114.288 407.566C112.387 406.94 110.59 406.109 108.818 405.227C107.056 404.325 105.32 403.374 103.685 402.219Z" fill="#263238"/>
<path d="M81.25 415.969C82.205 414.208 83.342 412.584 84.523 410.993C85.722 409.416 86.967 407.873 88.395 406.468C87.441 408.23 86.305 409.854 85.122 411.444C83.922 413.02 82.677 414.563 81.25 415.969Z" fill="#263238"/>
<path d="M70.0129 384.065C71.5559 384.557 73.0659 385.125 74.5719 385.703C76.0809 386.274 77.5669 386.899 79.0519 387.525C80.5309 388.167 82.0089 388.81 83.4639 389.507C84.9219 390.197 86.3759 390.897 87.7959 391.675C86.2529 391.184 84.7419 390.616 83.2369 390.038C81.7279 389.466 80.2419 388.841 78.7569 388.215C77.2789 387.572 75.8009 386.929 74.3459 386.232C72.8879 385.543 71.4339 384.842 70.0129 384.065Z" fill="#263238"/>
<path d="M105.128 392.935C106.524 392.198 107.986 391.678 109.465 391.211C110.95 390.766 112.453 390.375 114.022 390.203C112.627 390.942 111.164 391.462 109.685 391.927C108.199 392.371 106.697 392.761 105.128 392.935Z" fill="#263238"/>
<path d="M90.7529 387.87C89.9349 386.572 89.1899 385.237 88.4559 383.897C87.7149 382.56 87.0259 381.197 86.3379 379.835C85.6659 378.464 84.9949 377.093 84.3749 375.695C83.7489 374.301 83.1339 372.902 82.5929 371.465C83.4129 372.763 84.1569 374.098 84.8909 375.438C85.6319 376.775 86.3209 378.137 87.0079 379.501C87.6789 380.872 88.3509 382.244 88.9689 383.641C89.5959 385.035 90.2109 386.434 90.7529 387.87Z" fill="#263238"/>
<path d="M111.002 419.503C110.109 418.481 109.285 417.412 108.47 416.337C107.648 415.266 106.875 414.162 106.102 413.058C105.344 411.944 104.587 410.828 103.878 409.68C103.163 408.536 102.457 407.385 101.82 406.187C102.714 407.208 103.538 408.277 104.353 409.352C105.174 410.423 105.947 411.527 106.72 412.632C107.477 413.747 108.235 414.862 108.943 416.011C109.659 417.154 110.364 418.305 111.002 419.503Z" fill="#263238"/>
<path d="M379.942 168.861H297.283L290.883 112.721H373.543L379.942 168.861Z" fill="#A6A6A6"/>
<path d="M375.438 165.096H300.928L295.387 116.487H369.897L375.438 165.096Z" fill="white"/>
<path d="M329.421 142.065L328.231 143.48L316.509 133.36L317.699 131.945L329.421 142.065Z" fill="#FF7020"/>
<path d="M326.404 131.945L328.043 133.36L319.526 143.48L317.887 142.065L326.404 131.945Z" fill="#FF7020"/>
<path d="M354.481 142.065L353.29 143.48L341.568 133.36L342.759 131.945L354.481 142.065Z" fill="#FF7020"/>
<path d="M351.464 131.945L353.102 133.36L344.586 143.48L342.947 142.065L351.464 131.945Z" fill="#FF7020"/>
<path d="M315.01 151.791L314.694 149.79H360.122L360.439 151.791H315.01Z" fill="#FF7020"/>
<path d="M404.2 165.096H297.862V168.862H404.2V165.096Z" fill="#A6A6A6"/>
<path d="M413.177 165.096H320.956V168.862H413.177V165.096Z" fill="#C7C7C7"/>
<path d="M370.166 118.846L369.897 116.487H295.387L295.656 118.846H370.166Z" fill="#263238"/>
<path d="M301.659 117.666C301.695 117.99 301.96 118.252 302.252 118.252C302.543 118.252 302.751 117.99 302.715 117.666C302.679 117.342 302.414 117.08 302.122 117.08C301.83 117.08 301.623 117.343 301.659 117.666Z" fill="#C7C7C7"/>
<path d="M299.504 117.666C299.54 117.99 299.805 118.252 300.097 118.252C300.389 118.252 300.596 117.99 300.56 117.666C300.524 117.342 300.259 117.08 299.967 117.08C299.675 117.08 299.468 117.343 299.504 117.666Z" fill="white"/>
<path d="M297.348 117.666C297.384 117.99 297.649 118.252 297.941 118.252C298.233 118.252 298.44 117.99 298.404 117.666C298.368 117.342 298.103 117.08 297.811 117.08C297.52 117.08 297.312 117.343 297.348 117.666Z" fill="#FF7020"/>
</svg>
