<svg width="28" height="18" viewBox="0 0 28 18" fill="none" xmlns="http://www.w3.org/2000/svg">
<path d="M21.875 10H6.125C5.635 10 5.25 9.56 5.25 9C5.25 8.44 5.635 8 6.125 8H21.875C22.365 8 22.75 8.44 22.75 9C22.75 9.56 22.365 10 21.875 10Z" fill="white"/>
<path d="M17.5 17C17.3852 17.0016 17.2715 16.9757 17.166 16.924C17.0605 16.8724 16.9656 16.796 16.8875 16.7C16.5375 16.3 16.5375 15.68 16.8875 15.28L22.4 8.97996L16.8875 2.67996C16.5375 2.27996 16.5375 1.65996 16.8875 1.25996C17.2375 0.859961 17.78 0.859961 18.13 1.25996L24.255 8.25996C24.605 8.65996 24.605 9.27996 24.255 9.67996L18.13 16.68C17.955 16.88 17.7275 16.98 17.5175 16.98L17.5 17Z" fill="white"/>
</svg>
